<svg xmlns="http://www.w3.org/2000/svg" fill="none" viewBox="0 0 512 512"><defs/><path fill="#FF0844" d="M256 512c141.385 0 256-114.615 256-256S397.385 0 256 0 0 114.615 0 256s114.615 256 256 256z"/><path fill="#0F0F0F" d="M191.4 385c-.4 1 .2 1.8 0 2.7-.4-1.4-1.6-2-2.5-2.7-.9-.7-1.8-.4-2.7-.5-.2 0-.3 0-.3.2s.2.4.4.5c.2.1.7 0 1.1.4a5.403 5.403 0 00-1.3.7.5.5 0 01-.6 0c-.8-.6-1.8-.6-2.5-1.4-.2-.3-.5 0-.8.2-.7.2-1.4.8-2-.3-.2-.2-.6-.4-.8-.2-.7.4-1 0-1.5-.3s-.3-.5-.5 0-.3 0-.4 0a1.001 1.001 0 00-1.6.1.834.834 0 000 .1 1.003 1.003 0 01-1.2.3c-.8-.3-1.7-.3-2.4-1l-.2-.2c-.8.6-1-.2-1.5-.6-.5-.4-.3-.4-.7 0a1.007 1.007 0 01-1.1.2c-.4-.2-.7-.3-1-.1h-.2c-.3-1.3-2-.6-2.3-1.7a2 2 0 00-1.9-1.5c-.3.6.8.7.5 1.2-.3.5-.8.5-.6 1.1-.4 0-.5-.3-.6-.5-.4-.6-.9-.6-1.3-.2-.4.4-.6.2-.8 0a2 2 0 01-.4-1.4 2.9 2.9 0 00-2.3-3.3c0 .6 0 .6.6.7l.1.3s-.2.5-.5.3c-.7-.4-1.5 0-2.1 0-.6 0-.8-.2-.6-.7.3-.8.4-1.5-.6-2-.4-.2-.1-1-.5-1.2-.4.6-.4.6.5 2.6a5.101 5.101 0 01-2.4-3.1 3.796 3.796 0 01-.6-2c0-.5-.8-.8-.8-1.3s-.7-.8.2-.8c.2 0 .2-.3.1-.4-.3-1.4 0-2.9-.4-4.3a1.703 1.703 0 00-1-1.3c-.3.2 0 .5-.2.6-.2.1-.8-.7-.6-1.2a6.808 6.808 0 00.5-2 1.397 1.397 0 00-.4-1.1 4.194 4.194 0 00-.6 1.4c0-1-.4-2 0-3v-.2c-.8-.4-.4-1-.3-1.6a.798.798 0 000-.6 32.914 32.914 0 01-1.3-6.9 18.086 18.086 0 01.2-6.6 7.704 7.704 0 00-.4-3.4 1.002 1.002 0 00-1.3-1l-.2.1a23.968 23.968 0 01-6.8.3 10.494 10.494 0 01-7.7-4.4 26.938 26.938 0 01-3.3-5.5 15.6 15.6 0 01-.5-9.3 13.5 13.5 0 012.1-5.1c.9-1.3.9-1.3-.5-2a8.3 8.3 0 01-5-7c-.116-2.407.018-4.82.4-7.2v-2.5a8.193 8.193 0 011.6-4.4c.6-.7.2-1.6.3-2.6-.7.4-.5 1-.6 1.6-.1.6.2.5-.2.6-.4.1-.4-.4-.5-.6a.895.895 0 010-.6c.3-.4.2-.6-.2-.8-.4-.2-.5-.8-.7-1.3a.303.303 0 010-.3.21.21 0 01.068-.05.196.196 0 01.164 0 .21.21 0 01.068.05c.7.3.6-.2.4-.6a1.003 1.003 0 01.026-.776.987.987 0 01.574-.524 8.098 8.098 0 002.4-2.3c.3-.4.7-1-.3-1.3-.5 0 0-.5 0-.7 0-.8-.3-1.8.6-2.4.4.9-.5 1.9.4 2.6-.3-1.2.8-1.7 1.3-2.5.3-.3.4 0 .7 0a.796.796 0 00.8-.1c.3-.2.3-.5 0-.8-.3-.3-.2-.7.3-.6 1 .2 1.5-.6 2-1a9.3 9.3 0 001.8-1.8s.2-.3.3-.2c.1.1.2.6.6.2.4-.4 0-.4 0-.7a.5.5 0 01.1-.3c.5-.6 0-.7-.4-.9a25.74 25.74 0 01-4.5-1.7 62.412 62.412 0 01-6.6-4.3 1.4 1.4 0 01-.4-.3 40.315 40.315 0 01-3.9-6.8 12 12 0 01.8-8.4 44.975 44.975 0 014.3-8c1.7-2.5 3.2-5.2 5.1-7.6l3.7-4.3a39.617 39.617 0 005.8-10c.17-.319.371-.62.6-.9.3-.4.6-.9.4-1.4-.2-.5-.8-.3-1.2-.3h-.6a2.003 2.003 0 011.4-.3c.23.055.47.055.7 0 .6-.1 1.2-.4 1.1-1-.1-.6-.4-1.4-1.4-.8.3-.9.8-.7 1.4-.6-.2-.8-.5-1.6-1.6-1.4-.1 0-.3-.1-.3-.4a.3.3 0 01.3-.3c.7 0 1-.1.8-.8a.195.195 0 01-.027-.1c0-.035.009-.07.027-.1 1-.5.5-1.4.6-2.1a3.401 3.401 0 00-.3-2.4c-.7-1.4.1-2.7.2-4 .036-.585.172-1.16.4-1.7a2.105 2.105 0 00-.3-2.2c-1.1-1.5-2.2-3-3.1-4.5-.3-.5-.3-1.2-.6-1.6-1.1-1-.7-2.1-.2-3 .2-.4 0-.6 0-.8a3.095 3.095 0 01.2-2.7 1.1 1.1 0 00.1-.6 8.598 8.598 0 012.2-5.5c1.7-2.5 3.5-5 5-7.7a95.475 95.475 0 004.4-9 56.908 56.908 0 003-11.9A51.765 51.765 0 01156 142a62.205 62.205 0 014.3-7.9c1.7-2.7 3.4-5.5 5.3-8.1a34.09 34.09 0 012.4-3.1 3.896 3.896 0 00.8-2.2 1.593 1.593 0 01.8-1.2l.3-.4c-.9-.8.1-1.1.4-1.5.3-.4 0-1.3.6-1.8.2 0 0-.3-.3-.4-.7 0-.8-.4-.6-1a.21.21 0 01.068-.05.196.196 0 01.164 0 .21.21 0 01.068.05c.2.2.3.4.6.2s0-.4-.2-.6c-.2-.2-1-.7-.9-1.5 0-.2-.1-.2-.3-.3-1-.7-1.8-1.6-1.3-3 .1-.3-.1-.4-.2-.6-.1-.2-.8-.8-.1-1.3.2-.2-.1-.5-.3-.8a1.801 1.801 0 01-.4-1.2c0-.2 0-.7-.4-.3-.2 0-.3 0-.2-.3.2-1-.3-2.1.5-3 .2-.2 0-.5-.1-.7-.1-.2-.3 0-.5.1s-.4 0-.5-.2a1.398 1.398 0 010-1.7 2.994 2.994 0 00.6-3c-.2-.5-.1-1.5-.3-1.6-.6-.5-.4-1.4-1-1.7-.6-.3-.3-2.2 0-2.3.3-.1.5.1.5.3 0 1 .4.7 1 .4.9-.5 1.9-.8 2.8-1.2.2 0 .3-.2.4 0 0 1 .7.4 1.2.5.232-.027.467-.027.7 0 1 .5 1.5 0 2-1 1-2 .4-4.2.8-6.4a.605.605 0 00-.1-.5 2.296 2.296 0 01-.7-2.6.997.997 0 00-.3-1.1 1.6 1.6 0 01.2-2.2c.232-.175.51-.28.8-.3 1-.2 1.5-.4 1.3-1.4.5 0 .5.6 1 .2.5-.4.3 0 .2.2-.2.6.9 1.4-.2 2.1v.4l.8-.2c.3 0 0 .4 0 .6 0 .2-.3.5 0 .7.3.2.9 0 .9-.4 0-1.5 1-2.2 1.9-3 .3-.4.2-.6 0-1s-1-1.4 0-2.1c.201-.818.302-1.658.3-2.5a.602.602 0 01.2-.6c.9-.7.6-1.5.5-2.3 0-.4-.4-1.2.7-.7.2.2.4-.4.8-.4-.7-.3-.8-.6-.4-1.2.21-.31.379-.646.5-1 .3-.6.8 0 1-.3.2-.3.5-.1.8.3a4.3 4.3 0 004.5 1.4.6.6 0 01.5.1.3.3 0 00.5 0 3.4 3.4 0 011.7-1.3c.2.2-.4.3-.2.5s.4 0 .6 0c1.59.211 3.162.546 4.7 1a.6.6 0 01.6.5c.1.8.7.8 1.4.7h.3c.2 0-.2-1 .5-.4a1.196 1.196 0 01.4 1.5.5.5 0 01-.1.3c.4 0 .9.2.8-.5 0-.3.3-.4.5-.6.2-.2.9-.4.3-.9 1-.9 0-2.1.5-3.1s.7-1.4 1.6-1.5a.7.7 0 00.5-.1c.3-.3 1-.3 1-.8s-.7.3-1-.2a.418.418 0 010-.1c.2-.3.8-.1.8-.5s-.5-.7-1-.8c-.5-.1-1 0-.3-.8.2-.2-.3-.5-.7-.7a1.7 1.7 0 01-.8-.3.494.494 0 01-.2-.5.301.301 0 01.4-.2c.8.2.5-.3.4-.6a2.007 2.007 0 00-.5-.8 2.797 2.797 0 01-.8-1.9V53c-.8-1 0-1.3.7-1.7a3 3 0 014 0c.6.4 1.2.5 1.3 1.4 0 1.4 1.5 1.7 2.4 2.5.4.3.6.5.5 1a1.496 1.496 0 00.3 1.3h.1s-.2-.7.3-.8c.5-.1.3.5.5.8.2.3.1.4.4.4.3 0 .5-.1.6-.4.3-.7.7-.5 1.1 0 .4.5.7.3.9 0 .2-.3-.1-1-.5-1.3-.4-.3-.5.1-.9.1a.69.69 0 01-.21-.5.691.691 0 01.21-.5.799.799 0 01.4-.1c1-.5.8-1.4.5-2.2-.3-.8-.2-.4 0-.6 1.5-1.2 1-2.9 1-4.3 0-.2 0-.3-.2-.3s-.3.2-.3.4V50a1.4 1.4 0 010 .9 3.097 3.097 0 01-.7-2.5 2.391 2.391 0 000-1.2c0-.4-.3-.8.3-1 .3 0 0-.3 0-.6a1.396 1.396 0 01.7-1.2 2.603 2.603 0 012.4-.7l.3-.4c.1-.2.3-.7.6-.6a.805.805 0 01.5.7c-.1 1.3.6.6 1 .5.2.4-.6.6-.1.9a2.5 2.5 0 001.8.2l.4-.3c.2 0 .6-.6 1-.2.4.4-.3.5-.5.7a1.799 1.799 0 00-.2 1.7c0 .2.3.2.5.1.214-.148.415-.316.6-.5.3-.3 0-1.2.7-1.1a7.7 7.7 0 012.7.5c-.8.5-1.8.2-2.5.7-.7.5-.7.4-.4.9l.2.2c-.7 1.3.5.8 1 1 .5.2.3 0 .3-.2-.1-.9.6-.5 1-.7-.2-.3-.8-.5-.6-1.1.6.6 1 .4 1.4-.2 1-1 1.5-1 2.6-.3.6.4 1 1 1.7 1.3.3.2.3.3 0 .4-.3.1-.3.2-.2.4.17.15.377.254.6.3a.298.298 0 00.3-.2.211.211 0 000-.1c0-.5.4-.6.6-.8 0-.2-.2-.2-.4-.2s-.3-.1-.3-.3c0-.2.2-.2.3-.3 1.7-.6 2-1.2 1.9-2.9.2 0 .6.4.7-.2.1-.6 0-.6-.4-.6s-.4-.7 0-1c.4-.3.5-.2.4-.7-.1-.5.3-.6.7-.7.4-.1.3.4.4.6.1.2.3.6.7.3.4-.3.5-.3.5-.2.2 1.3 1.2.3 1.8.7a2.105 2.105 0 00-1.7-1.1c-.3 0-.7-.1-.6-.6.1-.5.5-.4.8-.3.667.234 1.256.65 1.7 1.2.4.4 1 .7.8 1.5 0 .4 1 1.2 1.4 1 .4-.2.5-.3.3-.4-.5-.4-.3-1.2-.8-1.6a1.404 1.404 0 01-.4-1.6c.1-.6.1-1.3 1.1-1.1.2 0 .4-.2.5-.3.1-.1 0 .7.4.6.4-.1.2-.3.1-.5s.4-.4.7-.5c.3-.1.6-.1.7.3a.999.999 0 001.4.7c.2 0 .3 0 .4.3.1.3.3.4.1.7-.2.3-.3.3-.4.1-1-.8-1.5.3-2.2.7.8-.5 1.7.5 2.4-.1.1 0 .4 0 .4-.2.7-1.5 2-.8 3-.7.5 0 .7.4.7.9s0 .6.4.6c1 0 1.5 1.1 2.3 1.6.1 0 .3.3.4.2.7 0 .8.4.7 1 .4 0 .4-.2.5-.4.1-.2.5-.7.8-.6.3.1.5.6.7 1 .2.4 0 .2-.3.3a.996.996 0 00-.6.9c.5-.4 1-1 1.4 0 .2.3.8.2 1 1a3.602 3.602 0 001.2 2.4c.1.2.3.3.5.2.2-.1.4-.2.6 0 .2.2-.3.4-.4.6.7.6 1.7.7 2.1 1.7a.4.4 0 00.4.3c.2 0 0-.4.2-.5.2-.1.1-1 .4-1.4a1.299 1.299 0 011.6-.7c-.6-.8.1-1.3.3-1.9 0-.2.3-.3.4 0 .1.3.4.6.8.3a.404.404 0 00.2-.4c0-.4-.5-.4-.8-.5l-.3-.1c.8-.4.8-1 .6-1.6-.5 0-.8.4-1.2.7 0-2.7 1.3-5 2.6-5.1 0 .6-.8.4-.9 1 .3.2.4 0 .6-.2a1 1 0 011-.1c1.2 1 3 .7 3.8 2.4.2.7.7.5 1.1 0l1-1.4a1.006 1.006 0 00.29-.773.997.997 0 00-.39-.727l-.1-.1c-.6-.3-.5-.6-.4-1.1-.7.5-.7.5-1.7-.2 1-.5 1.8-1.4 2.8-2 .2 0 .7-.2.3-.6v-.1c.166-.014.334-.014.5 0 .1 0 .5 0 .6-.2.1-.2-.3-.4-.6-.5-.7-.3-1.4.3-2.1 0a.5.5 0 01-.3-.1c-.1-.1.3-1 .8-1a6.9 6.9 0 012.8.6c.3.1.6.2.3.6-.3.4-.1.7.4.6a1.496 1.496 0 011.668.304c.143.142.256.31.332.496 0 .3.5.5.7.7.2.2 1 1 .4 1.8s.4 1.2.4 1.9c0 .3.4-.6.8 0s.6.2.6-.4c0-.6 0-.2.3-.2 1 .2 1.5 1 2.4 1.2 0 1.8 1.5.5 2.1 1 .1.2.4.2.6.3.2.1.3.1.3.3.2.7.2.7.8.4.2.4-.8.7-.3 1 .5.3.9 1 1.7.6h.4c-.3.9 1.2 1.3.8 1.7-.9.8-.5.8.3.9.1 0 .2.3.1.4-.1.1-.2.3 0 .5.713.914 1.1 2.04 1.1 3.2l-.2.8c.4-.7 1 .7 1.5-.4a1 1 0 010 1.3c-.2.3-.4.6-.1.9.3.3.5 0 .7 0a1.2 1.2 0 011.5.5.699.699 0 00.9.4.695.695 0 00.2-.1c.188-.084.395-.119.6-.1.6 0 1.4 0 1.4-1 0-.2.3-.3.6-.4a.698.698 0 00.5-.9c-.2-.5 0-.8.6-.5.6.3.5 0 .4-.3a6.018 6.018 0 00-.2-1.3 1.394 1.394 0 01.1-1.5c.4-.6 0-1-.6-1.3a2.098 2.098 0 01-1.1-2.8 1.98 1.98 0 01.1-.3 18.69 18.69 0 002.6-2.7l.5.9c.1.3.3.3.3.3.6-.2 1 0 1.3.4.548.37 1.157.642 1.8.8.45.192.808.55 1 1a31.034 31.034 0 001.8 3c.6.7 1.7 1 1.7 2 0 .3.4.4.7.4 1.1-.2 1.1.7 1.2 1.4.1.7 0 .7.6.6.6-.1.9.3 1.1.7a1.498 1.498 0 001.5 1h.2c.3 1.2 1.2.5 1.7.4a1 1 0 011.3.7 1.401 1.401 0 001.7 1c.257-.033.499-.137.7-.3a1.501 1.501 0 011.5 0c.3 0 .8 0 .7.4-.1.4-.5.2-.7.2-.2 0-.4 0-.4.2a.39.39 0 00.2.3c.5-.3 1 .6 1.5 0 .2-.2.6-.3.7 0 .4.7 1.2.6 1.8.8.6.2.8.5.7 1-.1.5.2 1 0 1.5s.5 0 .7.4c-.1.4-1 1.1.5 1 .4 0 1 .6 1.3 1.1.5 1 1.5 1 2.3 1.3.529.19 1.008.498 1.4.9.2.1 0 .6.5.5a.601.601 0 00.5-.6c0-.6.3-.4.7-.2.4.2 1.1 1.1 2 .8h.3c1.1-1.2 2.1-.1 3 .2h.2c1-.8 1 .3 1.3.6a1.1 1.1 0 001 .6c.3 0 .3-.5.3-.8.2-.7.5-.8 1-.4s.8.5.8-.3a.3.3 0 01.3-.4c.2 0 .3.2.5.3a8.309 8.309 0 011 3.4c0 .5-.3.6-.7.6 0 0-.1-.1 0-.1.2-.4.4-.7 0-1.1a.202.202 0 00-.232-.05.202.202 0 00-.068.05h-.1c-.3.5-.5 1.1 0 1.5.5.4.8 1.2 1.7 1.4.9.2.6 1.4 0 2.1-.2.2-.7.3-.4.6.3.3.5.1.7 0a.499.499 0 01.7 0c.334.533.822.951 1.4 1.2.5.3.2.5 0 .7a1.199 1.199 0 00-.4 1.6.796.796 0 00.2.3c.5.4.8 1 1.6 1s0 .9.5.7c.5-.2 0-.7.3-1 .3-.3.4-.3.5 0 .1.3.3.4.8 0s.8 0 1.2 0a2.299 2.299 0 012 2.2c0 .8 0 1.3-1.1 1.2.2.4.7.4.9.6.2.2.4 0 .4.3-.4 1 .5.7.8 1 .3.3.8 0 1-.5.2-.5.6-.6 1-.1s.3.3.6 0a1.5 1.5 0 011.4-.5 1.398 1.398 0 001.2-.3 2.5 2.5 0 012.7-.3c-.3.3-.3.3-1.4.2-.2 0-.4-.2-.5.1-.1.3.2.2.3.3a2.502 2.502 0 002.8.5l.3-.1c0-.8.8-.7 1-1.2.2-.5 1.1-.3 1.6 0s1 .4.5 1 .2.5.5.6c.7.3 1.7.3 1.6 1.5.9.5.4 1 0 1.4a.298.298 0 000 .2c.1.8-.4 1-1.2 1 .6.6.6 1-.3 1-.9 0-1 1.1-.7 1.7l.2.2c-1.3.6.2 1.9-.6 2.7-.5.5.3 3.2 1 3.5l2.1 1c.3.2.4-.1.3-.4-.1-.3-.4-.5 0-.7a.701.701 0 01.9.2c.228.244.43.512.6.8a1.798 1.798 0 002.1.7 2.1 2.1 0 012.5 1.2 2.301 2.301 0 002.6 1.6 1.001 1.001 0 01.8.2 14.908 14.908 0 013.5 3.7c.4.7.5 1-.4 1.2.7.9 1.8.9 2.7 1.4h.1a2.402 2.402 0 002.7 1.6c-.2.6-.8 0-.7.6.1.6.4.3.7.4.3.1.8.4.5.8-.4.9 0 1.7-.2 2.6a7.198 7.198 0 01-1.2 3.5c-.2.3-.3.4 0 .7.6.8.3 1.6-.6 1.8-1.4.2-1.7 1.3-2 2.4-.2.6-.2 1.1-.8 1.4a.61.61 0 00-.4.3c0 .3-.6.7-.2 1 .4.3.6 0 .9-.5a.59.59 0 01.45-.203.603.603 0 01.45.203c.046.06.079.128.1.2a.995.995 0 001 .7c.2 0 .3.2.4.4.1.2.1.4.4.4.3 0 .2-.4.2-.6v-1.3c.9 1.4 1.8 1 2.8.7a1.491 1.491 0 011.374.296c.188.158.334.359.425.587.092.227.127.473.101.717.157.929.426 1.836.8 2.7 0 .2.3.5.2.7-.5 1 0 1.9.3 2.8a.695.695 0 00.7.5c.351.084.688.219 1 .4.5.2.7.5.5 1-.2.5-.3 1 .3 1s.6.6.4 1a1.595 1.595 0 00-.2 1.5h.2c.3 0 0-.7.6-.6a.3.3 0 010 .4c-.3.3 0 1-.8.8-.8-.2-.8 0-.8.7a3.806 3.806 0 01-.7 1.7.699.699 0 01-.8.4.6.6 0 00-.7.4.836.836 0 000 .2c0 .4 0 .8.4 1 .4.2 1.2 0 1.2.7s-.2 1-.3 1.5c.005.067.005.133 0 .2-.2.5-.2.8.4.7.6-.1 1 .3.7 1a3.004 3.004 0 01-1 1.4c-1 .6-.9 1.5 0 2.3.1.1.5.2.3.4-.5.9.2.9.7 1 .405.162.753.44 1 .8.3.4.1.9 0 1.3s-.6.3-1 .3a10.423 10.423 0 00-1 0 .597.597 0 00-.6.6.697.697 0 00.4.7c.3.2.4-.1.6-.3.2-.2.3-.5.6-.4a.8.8 0 01.5.8c-.2.8.8 1 .7 1.7 0 .1.3.1.4 0a1.598 1.598 0 011.8.8l.5.7c.1.2.7.6.6.9-.1.3-.6 0-.9 0a1.399 1.399 0 00-.8.6c.75.016 1.492.151 2.2.4.7.4 1.2.8.8 1.7-.4.9.4 2.1.2 3.1-.7-.3-1.2-.1-1.3.7a.504.504 0 01-.282.555.499.499 0 01-.218.045.7.7 0 00-.7.4c-.1.2-.2.5-.5.3s-.5-.4 0-.8c-1.1.5-1.2 1-.6 2a1.598 1.598 0 00-1.3 1.8c.055.299.193.577.4.8.5.6.6 1-.1 1.3-.2 0-.4.2-.2.5a1.609 1.609 0 01.161 1.226 1.598 1.598 0 01-.761.974 3.013 3.013 0 00-1 .8c-.3.5-.6 1-1.4 1.2a.894.894 0 00-.461.227.892.892 0 00-.239.956c.057.165.161.31.3.417a1.3 1.3 0 01.4 1.7.211.211 0 010 .1c-.6 1-.5 1.5.6 2.2 1.1.7 1 1.2.5 2.3-.4.6-1.3 1.2-1 2.2 0 .4-.3.6-.5.9-.2.3-.3.3-.1.6.2.3.3 0 .5 0a.506.506 0 01.573.043.497.497 0 01.127.157c.2.3 0 .5-.1.8-.1.3-1 .5-.6 1s.9 0 1.3-.2.7-.1.7.5v.8c-.3-.1-.3-.6-.8-.5a3.995 3.995 0 00-1.8 2.7c.8-.8 2-.1 2.4-1.5 0 .9 1 1.6 0 2.4-.3.3 0 1 0 1.4.2 1.3-.6 2-1.2 2.9 0 .3.8-.2.8.4 0 .6-.4.5-.8.7a.401.401 0 01-.6-.2c0-.2 0-.8-.5-.5-.5.3-1 .5-.9 1a1.006 1.006 0 01-.012.869 1.005 1.005 0 01-.688.531 1.101 1.101 0 00-.9 1c0 .6 0 1.2-1 1.4a8.25 8.25 0 001.1.7c.5.3.7.6.3 1.1-.4.5 0 .5.2.6a.399.399 0 00.5 0c.2-.3.5-.8.8-.4a1 1 0 01-.3 1.4 1.298 1.298 0 01-1.2.1c.2.6.1 1.4 1 .6.2-.2.5-.1.8 0 1 1 1 1 1.8 0 .3.3.3.6.4 1 .3.7-.3 1.2-1.1 1-.8-.2-.8.3-.6.7a2.3 2.3 0 010 1.3c-.2.6-.2 1.4-1.2.9a.602.602 0 00-.7.2c-.1.3 0 .5.2.7.2.2.4.2.2.4s-.3.1-.5 0-.2-.6-.5-.3a.706.706 0 00-.21.5.7.7 0 00.21.5l.7.8c.2.3.7 1.2 0 1.8-.4.3 0 .4.1.5a1.898 1.898 0 01.9 1.7c-.4-.2-.6-.6-1-.6s-.4-.2-.5 0a2.294 2.294 0 01-1.4 1.2c-.4 0 0 .4.2.5 1.3.3 1.2.9.4 1.5a3.001 3.001 0 00-1.5 2.8c0 .3-.2.3-.4.2-.2-.1-.5-.2-.6 0-.1.2 0 .5.2.7.178.137.328.308.44.503a1.706 1.706 0 01-.14 1.897 1.701 1.701 0 01-.8.5c-.6.5-.7 1.3-1.4 1.7-.2.2 0 .6.2.8.2.2.6.9-.3 1-.3 0-.7.5-1 .7-.3.2-.7.6.1.9.8.3.7 1 .3 1.5-.4.5 0 .7.3.9-.9.7-1 1.9-1.5 2.7a1 1 0 000 1.4c.2.3 0 .8-.2 1.2a.898.898 0 000 1.2c.3.4 0 .4-.3.5a1.403 1.403 0 00-.8.2 1.01 1.01 0 01.502.614.98.98 0 01.03.403.982.982 0 01-.132.383 1 1 0 01-.4.4 4.306 4.306 0 01-2.1 1.3c-.5 0-.4.4-.2.6.6.6.4 1.8 1.5 2.1v.3c-.8.1-.5 1-.8 1.3-.9.5-1.2 1.4-2 2.1-.8.7-.2 1 .1 1.5.3-.5.3-1.5.8-1.3.5.2 0 .9 0 1.3a8.12 8.12 0 00-.4 1.9c0 .6-.2 1-.8 1.1a4.81 4.81 0 000-.7c0-.5-.4-.7-.8-.3-.4.4-.6.3-1.2 0 .4 1 0 2 .4 2.8-.8 1-.3 2.2-.7 3.2-.2.4 0 1.2-.7 1.3-.2 0-.2.6-.6.3a.903.903 0 01-.4-.9 1.12 1.12 0 000-.4c0-.2-.4-.3-.4-.2 0 .6-.6 1-.6 1.5s.3 1 0 1.5.5 0 .7 0c.2 0-.5.7 0 1.1.5.4-.2.6-.4.7a.688.688 0 01-.229.155.684.684 0 01-.542 0 .688.688 0 01-.229-.155.495.495 0 010-.3c0-.1.2-.2.3-.1.1.1.3.3.5.1.2-.2-.2-.4-.3-.6-.1-.2-.3-.4-.6-.3a.605.605 0 00-.3.6 4.402 4.402 0 01-.3 2.2c-.2.6-.3 1.1-1.1 1a.399.399 0 00-.4.1 2.303 2.303 0 00.4 2.5c1 .6 1.1.8 0 1.6-.2.2-.5.3-.6.7-.3-.2-.4-1-.8-.6s-1 .7-.4 1.3c.6.6.2.6 0 .8a9.016 9.016 0 01-1.5 2 .996.996 0 00-.3 1.4c.8.8 0 1.2-.4 1.6-.4.4-.4.5-.4.9-.065.81-.199 1.613-.4 2.4 0 .2-.2.4 0 .6 1 .7.5 1.6.3 2.5a2.981 2.981 0 000-.5c0-.2 0-.7-.5-.6-.5.1-.3.3-.3.6s-.7.8-1 1.4c-.5 1-.4 2.2-1.2 3.1l-.3.5c-1 .7-1 .8.2 1.3-.2.4-.9.7 0 1.3.3.3-.4.4-.7.4-.3 0-.7-.2-.8.3-.1.5-.4 1-.2 1.6.2.6.2.4 0 .5-.7.3-.7.6 0 1 .2.1.3.3.2.6a27.019 27.019 0 01-2.2 3.5 5 5 0 00-1 2 1.401 1.401 0 000 1c.2.6 0 1-.7 1a2.102 2.102 0 01-2.3-.5.507.507 0 00-.316-.375.502.502 0 00-.484.075.5.5 0 00-.2.3c-.3.5-1 1-.2 1.9a1.393 1.393 0 01.42 1 1.4 1.4 0 01-.42 1 1.003 1.003 0 00-.2 1.2 2.798 2.798 0 010 2.4.601.601 0 000 .7 2.5 2.5 0 01.6 2.6c-.2.6-.3 1.1.4 1.5.3 0 .2.4.2.6a6.898 6.898 0 000 3.3c.439 1.875.74 3.781.9 5.7.073 2.1.409 4.183 1 6.2.292 1.245.426 2.522.4 3.8v.7a7.5 7.5 0 011 4.3c.121 1.335.424 2.647.9 3.9.4 1.8.5 3.7.7 5.5a63.595 63.595 0 002.2 10.1 1.003 1.003 0 00.9.9c.9.2 1.8.5 2 1.6 0 .4.4.5.7.6.3.1.8.4.8 1s.3.4.6.5a2.695 2.695 0 011.7 2l.8 1.9a7.298 7.298 0 01-.7 5.5 12.181 12.181 0 00-.9 3.1 2.297 2.297 0 01-1 1.9 8.991 8.991 0 00-2.8 3.4 31.037 31.037 0 01-3.4 5 6.2 6.2 0 00-1.7 3 1.107 1.107 0 01-.7.8 9.907 9.907 0 00-4.1 3.5 27.98 27.98 0 01-3.9 3.5 3.098 3.098 0 00-1.3 1.9c-.3 1.2-1.4 1.8-2.1 2.7a5.59 5.59 0 00-1 1.2 6.296 6.296 0 01-1.7 1.9l-9.2 7.7a43.79 43.79 0 01-4.5 3.7 1.494 1.494 0 00-.6.6 5.703 5.703 0 01-3.8 3 3.795 3.795 0 00-2.4 2 4.502 4.502 0 01-4.4 3 1.4 1.4 0 00-1.3.7 5.8 5.8 0 00-.6 1.4 3.5 3.5 0 01-4.1 2.7 2.697 2.697 0 00-2.8 1.5 4.501 4.501 0 01-4 2.3c-.446.02-.871.197-1.2.5a38.026 38.026 0 00-3 2.4 2.2 2.2 0 01-1.9.6 1.499 1.499 0 00-1.3.6 12.903 12.903 0 01-5.2 3.6 19.853 19.853 0 00-3.2 2.2 24.678 24.678 0 00-3.4 2.5 8.39 8.39 0 01-2.2.9 5.698 5.698 0 00-2.8 1.8 3.303 3.303 0 01-3.8 1.6.498.498 0 00-.5 0 25.981 25.981 0 01-4.6 3 5.997 5.997 0 01-3.5.8 22.202 22.202 0 00-6.7.9 20.976 20.976 0 01-5.6 1.2 1.097 1.097 0 00-.8.2 2.608 2.608 0 01-2.3.7c-.2 0-.5 0-.6.2-.4.8-1.2.7-1.9.8a63.737 63.737 0 01-3.6.3 2.986 2.986 0 01-1.181-.177 2.989 2.989 0 01-1.019-.623 3.1 3.1 0 00-3.8.2 2.505 2.505 0 01-2.3.5 24.889 24.889 0 00-4.6 0h-.6c-1-.8-2.3-.6-3.5-.7a3.698 3.698 0 01-2.4-1 4.496 4.496 0 00-2-.8 2.499 2.499 0 01-1.4-1.2 3.1 3.1 0 00-1.7-1.4c-.8-.2-1.1-.8-1.6-1.4a17.225 17.225 0 01-2.3-3.7 4.017 4.017 0 00-1.3-1.3 7.396 7.396 0 01-2.4-3.6 11.608 11.608 0 00-1.9-3.4 2.997 2.997 0 01-.8-2.1 8.202 8.202 0 00-.2-1.6l-1.1-4.3a19.916 19.916 0 010-6c.325-1.308.393-2.666.2-4a2.907 2.907 0 01.6-2.3 2.501 2.501 0 00.5-1.8 3.995 3.995 0 01.8-3.2.997.997 0 00.2-1 3.99 3.99 0 01.2-3.5 1.399 1.399 0 000-1.4 4 4 0 01.3-3.6l.7-2.1a2.995 2.995 0 012.5-2c1.3-.1 1.5-.4 1-1.7a1.997 1.997 0 010-1.2 4.496 4.496 0 000-1.5c0-1.7-.4-3.4-.4-5.2 0-.3.2-.6-.1-1a.601.601 0 010-.8 1.795 1.795 0 00.3-1.9 15.006 15.006 0 00-3.6-7.5c-.4-.4-.4-1-.7-1.5-.8-1.5-1.4-2-3.3-1.4a15.337 15.337 0 00-3.2.6h-.4c-.2 1.2-.9.5-1.3.3a6.007 6.007 0 00-4 0 4.703 4.703 0 01-2.1.7c-.2 0-.3 0-.4.2-.1.6-.5.6-1 .2a.4.4 0 00-.6 0c-.9.8-1.7.4-2.6 0-.9-.4-1.1-.2-1.3.6a.991.991 0 01-.1.3c-1-.3-2 .2-2.9-.5a.598.598 0 01-.2-.2c0-.4.2-1-.4-1-.6 0-1.4-.2-1.6.8 0 .3-.3.2-.5 0s-.2.2-.4-.1zm-10-308.5c0-.2.2-.3 0-.4a.599.599 0 00-.5.1c-.353.313-.687.647-1 1-.1.2-.3.4-.1.7.2.3 1 .6 1 .5 0-.1 1-.4 1.3-1 .3-.6 0-.3-.3-.3s-.6-.2-.3-.6h-.1z"/></svg>